<svg width="22" height="22" viewBox="0 0 22 22" fill="none" xmlns="http://www.w3.org/2000/svg">
<path fill-rule="evenodd" clip-rule="evenodd" d="M6.75 13.5C6.75 13.9142 7.08579 14.25 7.5 14.25H14.5C14.9142 14.25 15.25 13.9142 15.25 13.5C15.25 13.0858 14.9142 12.75 14.5 12.75H7.5C7.08579 12.75 6.75 13.0858 6.75 13.5ZM6.75 8.5C6.75 8.91421 7.08579 9.25 7.5 9.25H11C11.4142 9.25 11.75 8.91421 11.75 8.5C11.75 8.08579 11.4142 7.75 11 7.75H7.5C7.08579 7.75 6.75 8.08579 6.75 8.5Z" fill="#182136"/>
<path fill-rule="evenodd" clip-rule="evenodd" d="M13.1209 2.31942C11.7269 2.22676 10.2702 2.22695 8.87914 2.31942C5.07977 2.57198 2.0391 5.64418 1.78868 9.51909C1.73711 10.3171 1.73711 11.1445 1.78868 11.9425C1.87658 13.3027 2.48344 14.6046 3.25215 15.7589C3.26364 15.7761 3.2744 15.7939 3.28442 15.812C3.95276 17.022 3.4627 18.4019 2.96352 19.3479C2.88175 19.5028 2.81456 19.6302 2.75892 19.7413C2.8344 19.7439 2.91937 19.746 3.01768 19.7484C4.08642 19.7744 4.764 19.4789 5.30355 19.081L5.32118 19.068C5.49486 18.9399 5.65221 18.8239 5.78243 18.7396C5.89552 18.6664 6.10242 18.5373 6.3539 18.5064C6.61726 18.474 6.8727 18.5636 7.0002 18.6084C7.16336 18.6657 7.37066 18.7511 7.61025 18.8498L7.62962 18.8578C8.00903 19.0141 8.46321 19.1145 8.87914 19.1422C10.2702 19.2346 11.7269 19.2348 13.1209 19.1422C16.9202 18.8896 19.9609 15.8174 20.2113 11.9425C20.2629 11.1445 20.2629 10.3171 20.2113 9.51909C19.9609 5.64417 16.9202 2.57198 13.1209 2.31942ZM2.61336 20.0808C2.61333 20.0808 2.61347 20.08 2.61387 20.0782ZM8.77965 0.822726C10.2369 0.725857 11.7601 0.725659 13.2204 0.822726C17.787 1.12629 21.4103 4.81258 21.7082 9.42235C21.7639 10.2848 21.7639 11.1768 21.7082 12.0392C21.4103 16.649 17.787 20.3353 13.2204 20.6389C11.7601 20.7359 10.2369 20.7357 8.77965 20.6389C8.21472 20.6013 7.59978 20.4677 7.05839 20.2448C6.8203 20.1467 6.65868 20.0804 6.54041 20.037C6.45909 20.0929 6.35108 20.1723 6.1938 20.2883C5.40136 20.8726 4.40092 21.2825 2.98117 21.248C2.96599 21.2476 2.95074 21.2472 2.93544 21.2469C2.66155 21.2403 2.36961 21.2334 2.13152 21.1873C1.84475 21.1318 1.48996 20.9931 1.26791 20.6145C1.02623 20.2025 1.12313 19.7858 1.21688 19.5234C1.30536 19.2757 1.45874 18.9852 1.61542 18.6885C1.62258 18.6749 1.62974 18.6614 1.6369 18.6478C2.10323 17.7641 2.23314 17.0419 1.98381 16.5604C1.15148 15.304 0.402725 13.7556 0.291801 12.0392C0.236066 11.1768 0.236066 10.2848 0.291801 9.42235C0.589716 4.81258 4.213 1.12629 8.77965 0.822726Z" fill="#182136"/>
</svg>
