<svg width="29" height="25" viewBox="0 0 29 25" fill="none" xmlns="http://www.w3.org/2000/svg">
<path d="M18.7648 20.8482H6.96489L3.20683 23.8858L3.24577 20.8482H1.88275C1.76628 20.8482 1.65096 20.8252 1.54344 20.7804C1.43591 20.7356 1.33831 20.67 1.25626 20.5874C1.17421 20.5047 1.10932 20.4066 1.06534 20.2988C1.02137 20.1909 0.999167 20.0755 1.00002 19.959V7.14653C1.00002 7.03006 1.02307 6.91475 1.06783 6.80722C1.1126 6.6997 1.1782 6.6021 1.26086 6.52005C1.34351 6.43799 1.44159 6.37311 1.54944 6.32913C1.65729 6.28515 1.77277 6.26295 1.88924 6.26381H18.7648C18.8829 6.26033 19.0005 6.2806 19.1106 6.3234C19.2207 6.36621 19.3211 6.43068 19.4058 6.51299C19.4906 6.59531 19.5579 6.6938 19.6039 6.80262C19.6499 6.91145 19.6735 7.02839 19.6735 7.14653V19.9395C19.6735 20.1805 19.5778 20.4116 19.4073 20.5821C19.2369 20.7525 19.0058 20.8482 18.7648 20.8482Z" stroke="#182136"/>
<path d="M3.75195 9.8728H16.3762" stroke="#182136"/>
<path d="M3.75195 13.157H10.6644" stroke="#182136"/>
<path d="M3.75195 16.4412H13.5008" stroke="#182136"/>
<path d="M21.3353 15.5844H22.5425L26.3006 18.1287L26.2876 15.5844H27.6247C27.8588 15.5844 28.0833 15.4914 28.2488 15.3259C28.4144 15.1603 28.5074 14.9358 28.5074 14.7017V1.88275C28.5074 1.76628 28.4843 1.65096 28.4396 1.54344C28.3948 1.43592 28.3292 1.33832 28.2465 1.25626C28.1639 1.17421 28.0658 1.10932 27.958 1.06534C27.8501 1.02137 27.7346 0.999167 27.6182 1.00002H10.7426C10.5085 1.00002 10.284 1.09303 10.1184 1.25857C9.95287 1.42411 9.85986 1.64863 9.85986 1.88275V4.55039" stroke="#182136"/>
</svg>
