<svg width="11" height="8" viewBox="0 0 11 8" fill="none" xmlns="http://www.w3.org/2000/svg">
<path d="M9.95704 0.964319L3.65704 7.15182C3.55183 7.25531 3.41016 7.3133 3.26258 7.3133C3.11501 7.3133 2.97334 7.25531 2.86813 7.15182L0.168131 4.50034C0.115453 4.44853 0.0734946 4.38687 0.04465 4.31885C0.0158055 4.25083 0.000640097 4.1778 1.98294e-05 4.10393C-0.000600438 4.03005 0.0133365 3.95677 0.0410349 3.88828C0.0687334 3.81979 0.109651 3.75743 0.161451 3.70475C0.213252 3.65207 0.27492 3.61011 0.342936 3.58127C0.410952 3.55242 0.483984 3.53726 0.557861 3.53664C0.631738 3.53602 0.705014 3.54995 0.773504 3.57765C0.841995 3.60535 0.90436 3.64627 0.957037 3.69807L3.26258 5.96213L9.16883 0.16135C9.27531 0.056735 9.41899 -0.00129663 9.56826 2.19898e-05C9.64217 0.000674902 9.71523 0.0158789 9.78326 0.0447661C9.85129 0.0736533 9.91297 0.115658 9.96477 0.168382C10.0166 0.221105 10.0575 0.283516 10.0852 0.352049C10.1128 0.420583 10.1268 0.493897 10.1261 0.567806C10.1254 0.641716 10.1102 0.714773 10.0814 0.782807C10.0525 0.850841 10.0098 0.912519 9.95704 0.964319Z" fill="#1CA854"/>
</svg>
