<svg width="18" height="8" viewBox="0 0 18 8" fill="none" xmlns="http://www.w3.org/2000/svg">
<path d="M10.5195 1.02648L4.21954 7.21398C4.11433 7.31747 3.97266 7.37547 3.82508 7.37547C3.67751 7.37547 3.53584 7.31747 3.43063 7.21398L0.730631 4.5625C0.677953 4.5107 0.635995 4.44903 0.60715 4.38102C0.578305 4.313 0.56314 4.23997 0.56252 4.16609C0.5619 4.09221 0.575836 4.01894 0.603535 3.95045C0.631233 3.88196 0.672151 3.81959 0.723951 3.76691C0.775752 3.71424 0.83742 3.67228 0.905436 3.64343C0.973452 3.61459 1.04648 3.59942 1.12036 3.5988C1.19424 3.59818 1.26751 3.61212 1.336 3.63982C1.4045 3.66752 1.46686 3.70843 1.51954 3.76023L3.82508 6.0243L9.73133 0.223516C9.83781 0.118901 9.98149 0.0608692 10.1308 0.0621879C10.2047 0.0628408 10.2777 0.0780447 10.3458 0.106932C10.4138 0.135819 10.4755 0.177824 10.5273 0.230547C10.5791 0.283271 10.62 0.345681 10.6477 0.414215C10.6753 0.482748 10.6893 0.556063 10.6886 0.629972C10.6879 0.703882 10.6727 0.776939 10.6439 0.844973C10.615 0.913006 10.573 0.974684 10.5202 1.02648H10.5195ZM17.2766 0.230547C17.2248 0.177784 17.1631 0.135744 17.0951 0.106832C17.027 0.0779199 16.954 0.0627019 16.8801 0.0620489C16.8061 0.0613959 16.7328 0.0753203 16.6643 0.103026C16.5957 0.130732 16.5333 0.171676 16.4806 0.223516L10.5744 6.0243L9.2504 4.72352C9.14392 4.61899 9.00028 4.56105 8.85107 4.56244C8.70187 4.56382 8.55933 4.62442 8.45481 4.7309C8.35029 4.83738 8.29235 4.98102 8.29373 5.13022C8.29512 5.27942 8.35571 5.42196 8.46219 5.52648L10.1799 7.21398C10.2851 7.31747 10.4268 7.37547 10.5744 7.37547C10.722 7.37547 10.8636 7.31747 10.9688 7.21398L17.2688 1.02648C17.3216 0.974754 17.3637 0.91312 17.3927 0.845108C17.4217 0.777097 17.437 0.704041 17.4377 0.630119C17.4384 0.556197 17.4245 0.482858 17.3969 0.414296C17.3693 0.345735 17.3284 0.283295 17.2766 0.230547Z" fill="#1CA854"/>
</svg>
