<svg width="18" height="18" viewBox="0 0 18 18" fill="none" xmlns="http://www.w3.org/2000/svg">
<path d="M8.9375 0C7.16983 0 5.44186 0.524175 3.97209 1.50624C2.50233 2.48831 1.35679 3.88415 0.680331 5.51727C0.00387248 7.15038 -0.17312 8.94741 0.171736 10.6811C0.516591 12.4148 1.36781 14.0073 2.61774 15.2573C3.86767 16.5072 5.46018 17.3584 7.19388 17.7033C8.92759 18.0481 10.7246 17.8711 12.3577 17.1947C13.9909 16.5182 15.3867 15.3727 16.3688 13.9029C17.3508 12.4331 17.875 10.7052 17.875 8.9375C17.8725 6.5679 16.9301 4.29606 15.2545 2.6205C13.5789 0.944932 11.3071 0.00250234 8.9375 0ZM8.9375 16.5C7.44178 16.5 5.97965 16.0565 4.736 15.2255C3.49236 14.3945 2.52305 13.2134 1.95066 11.8315C1.37828 10.4497 1.22851 8.92911 1.52032 7.46213C1.81212 5.99515 2.53237 4.64764 3.59001 3.59C4.64764 2.53237 5.99515 1.81211 7.46213 1.52031C8.92911 1.22851 10.4497 1.37827 11.8315 1.95066C13.2134 2.52305 14.3945 3.49235 15.2255 4.736C16.0565 5.97965 16.5 7.44178 16.5 8.9375C16.4977 10.9425 15.7002 12.8647 14.2825 14.2825C12.8647 15.7002 10.9425 16.4977 8.9375 16.5ZM14.4375 8.9375C14.4375 9.11984 14.3651 9.2947 14.2361 9.42364C14.1072 9.55257 13.9323 9.625 13.75 9.625H8.9375C8.75517 9.625 8.5803 9.55257 8.45137 9.42364C8.32244 9.2947 8.25 9.11984 8.25 8.9375V4.125C8.25 3.94266 8.32244 3.7678 8.45137 3.63886C8.5803 3.50993 8.75517 3.4375 8.9375 3.4375C9.11984 3.4375 9.29471 3.50993 9.42364 3.63886C9.55257 3.7678 9.625 3.94266 9.625 4.125V8.25H13.75C13.9323 8.25 14.1072 8.32243 14.2361 8.45136C14.3651 8.58029 14.4375 8.75516 14.4375 8.9375Z" fill="#ACAEB9"/>
</svg>
