<svg width="18" height="18" viewBox="0 0 18 18" fill="none" xmlns="http://www.w3.org/2000/svg">
<path fill-rule="evenodd" clip-rule="evenodd" d="M1.94376 5.83333C3.13853 3.13046 5.81669 1.25 8.95814 1.25C13.2153 1.25 16.6665 4.70114 16.6665 8.95833C16.6665 13.2155 13.2154 16.6667 8.95818 16.6667C8.613 16.6667 8.33318 16.9465 8.33318 17.2917C8.33318 17.6368 8.613 17.9167 8.95818 17.9167C13.9057 17.9167 17.9165 13.9059 17.9165 8.95833C17.9165 4.01078 13.9057 0 8.95814 0C4.94287 0 1.58562 2.64017 0.445228 6.27105C0.385603 6.46089 0.419937 6.66778 0.537686 6.82818C0.655435 6.98858 0.842526 7.08333 1.04151 7.08333H3.12484C3.47002 7.08333 3.74984 6.80351 3.74984 6.45833C3.74984 6.11316 3.47002 5.83333 3.12484 5.83333H1.94376Z" fill="#3C5EC4"/>
<path fill-rule="evenodd" clip-rule="evenodd" d="M8.9585 5C9.30367 5 9.5835 5.27982 9.5835 5.625V8.69945L11.0671 10.1831C11.3112 10.4271 11.3112 10.8229 11.0671 11.0669C10.823 11.311 10.4273 11.311 10.1832 11.0669L8.51655 9.40028C8.39934 9.28307 8.3335 9.12409 8.3335 8.95833V5.625C8.3335 5.27982 8.61332 5 8.9585 5Z" fill="#3C5EC4"/>
<path fill-rule="evenodd" clip-rule="evenodd" d="M0.625 8.33333C0.970178 8.33333 1.25 8.61315 1.25 8.95833C1.25 9.22061 1.26182 9.47983 1.28491 9.73543C1.31597 10.0792 1.06245 10.3831 0.718674 10.4141C0.374895 10.4452 0.0710341 10.1917 0.0399808 9.84789C0.0135183 9.55493 0 9.2582 0 8.95833C0 8.61315 0.279822 8.33333 0.625 8.33333ZM0.983833 11.5786C1.30685 11.457 1.66735 11.6202 1.78903 11.9432C1.90493 12.2509 2.0382 12.5493 2.18757 12.8371C2.34657 13.1435 2.22711 13.5207 1.92074 13.6797C1.61436 13.8387 1.2371 13.7193 1.07809 13.4129C0.90604 13.0814 0.752616 12.7379 0.619261 12.3838C0.497586 12.0608 0.660811 11.7003 0.983833 11.5786ZM2.55916 14.589C2.81216 14.3542 3.20761 14.3689 3.44243 14.6219C3.67869 14.8764 3.9306 15.1145 4.19643 15.3345C4.46236 15.5546 4.49953 15.9486 4.27946 16.2145C4.05939 16.4804 3.66541 16.5176 3.39948 16.2975C3.09117 16.0424 2.79947 15.7666 2.52627 15.4723C2.29144 15.2193 2.30617 14.8238 2.55916 14.589ZM5.05674 16.7046C5.20044 16.3908 5.57135 16.2528 5.8852 16.3965C6.13488 16.5109 6.39134 16.6116 6.65374 16.698C6.98161 16.8059 7.15992 17.1592 7.052 17.4871C6.94408 17.8149 6.5908 17.9932 6.26293 17.8853C5.956 17.7843 5.65629 17.6665 5.3648 17.5331C5.05096 17.3894 4.91304 17.0184 5.05674 16.7046Z" fill="#3C5EC4"/>
</svg>
