<svg width="29" height="29" viewBox="0 0 29 29" fill="none" xmlns="http://www.w3.org/2000/svg">
<path fill-rule="evenodd" clip-rule="evenodd" d="M5 0V0.5V1.33333H16V0.5V0H17V0.5V1.33333H20.5H21V1.83333V5.83333V12.0145C25.4617 12.2733 29 15.9734 29 20.5C29 25.1944 25.1944 29 20.5 29C15.8056 29 12 25.1944 12 20.5C12 20.2189 12.0137 19.941 12.0404 19.6667H0.5H0V19.1667V5.83333V1.83333V1.33333H0.5H4V0.5V0H5ZM4 2.33333H1V5.33333H20V2.33333H17V3.16667V3.66667H16V3.16667V2.33333H5V3.16667V3.66667H4V3.16667V2.33333ZM20 6.33333H1V18.6667H12.1983C13.0022 15.0109 16.1585 12.2373 20 12.0145V6.33333ZM20.5 13C16.7843 13 13.6988 15.7026 13.1037 19.2494C13.0355 19.6558 13 20.0735 13 20.5C13 24.6421 16.3579 28 20.5 28C24.6421 28 28 24.6421 28 20.5C28 16.3579 24.6421 13 20.5 13ZM21 15.3333V15.8333V20.2929L22.8536 22.1464L23.2071 22.5L22.5 23.2071L22.1464 22.8536L20.1464 20.8536L20 20.7071V20.5V15.8333V15.3333H21Z" fill="#6381E0"/>
</svg>
