<svg width="16" height="16" viewBox="0 0 16 16" fill="none" xmlns="http://www.w3.org/2000/svg">
<path d="M15.2255 3.89077L15.2255 3.89077C15.3372 4.0025 15.4259 4.13514 15.4863 4.28113C15.5468 4.42712 15.5779 4.58359 15.5779 4.74161C15.5779 4.89963 15.5468 5.0561 15.4863 5.20209C15.4259 5.34807 15.3372 5.48072 15.2255 5.59244L15.2576 5.62459L15.2255 5.59245L5.59186 15.226L5.59173 15.2262C5.48045 15.3383 5.34799 15.4273 5.20204 15.4878C5.05609 15.5483 4.89956 15.5792 4.74156 15.5787H4.74141H1.25001C0.930918 15.5787 0.624898 15.452 0.399268 15.2263C0.173639 15.0007 0.0468813 14.6947 0.0468813 14.3756L0.0468816 10.8842L0.0468811 10.884C0.0463763 10.726 0.0772832 10.5695 0.137805 10.4236C0.198328 10.2776 0.287258 10.1451 0.399426 10.0339L0.399559 10.0337L10.0332 0.399362L10 0.366217L10.0332 0.399359C10.1449 0.28761 10.2775 0.198964 10.4235 0.138484C10.5695 0.0780038 10.726 0.046875 10.884 0.046875C11.042 0.046875 11.1985 0.0780038 11.3445 0.138484C11.4905 0.198964 11.6231 0.28761 11.7348 0.399359L15.2255 3.89077ZM4.74141 14.4225H4.76083L4.77456 14.4087L11.6496 7.53374L11.6827 7.50059L11.6496 7.46745L8.15815 3.97604L8.12501 3.94289L8.09186 3.97604L1.21686 10.851L1.20313 10.8648V10.8842V14.3756V14.4225H1.25001H4.74141ZM12.4669 6.64937L12.5 6.6825L12.5332 6.64936L14.4082 4.77436L14.4413 4.74121L14.4081 4.70807L10.9167 1.21744L10.8836 1.1843L10.8505 1.21745L8.97545 3.09245L8.94231 3.1256L8.97546 3.15874L12.4669 6.64937Z" fill="white" stroke="white" stroke-width="0.09375"/>
</svg>
