<svg width="13" height="13" viewBox="0 0 13 13" fill="none" xmlns="http://www.w3.org/2000/svg">
<path d="M12.3168 11.4325C12.3749 11.4906 12.421 11.5595 12.4524 11.6354C12.4838 11.7113 12.5 11.7926 12.5 11.8747C12.5 11.9568 12.4838 12.0381 12.4524 12.114C12.421 12.1899 12.3749 12.2588 12.3168 12.3168C12.2588 12.3749 12.1899 12.421 12.114 12.4524C12.0381 12.4838 11.9568 12.5 11.8747 12.5C11.7926 12.5 11.7113 12.4838 11.6354 12.4524C11.5595 12.421 11.4906 12.3749 11.4325 12.3168L6.25 7.13354L1.06748 12.3168C0.950207 12.4341 0.791156 12.5 0.625313 12.5C0.459469 12.5 0.300419 12.4341 0.18315 12.3168C0.0658809 12.1996 3.26917e-09 12.0405 0 11.8747C-3.26917e-09 11.7088 0.0658809 11.5498 0.18315 11.4325L5.36646 6.25L0.18315 1.06748C0.0658809 0.950207 0 0.791156 0 0.625313C0 0.459469 0.0658809 0.300419 0.18315 0.18315C0.300419 0.0658809 0.459469 0 0.625313 0C0.791156 0 0.950207 0.0658809 1.06748 0.18315L6.25 5.36646L11.4325 0.18315C11.5498 0.0658809 11.7088 -3.26917e-09 11.8747 0C12.0405 3.26917e-09 12.1996 0.0658809 12.3168 0.18315C12.4341 0.300419 12.5 0.459469 12.5 0.625313C12.5 0.791156 12.4341 0.950207 12.3168 1.06748L7.13354 6.25L12.3168 11.4325Z" fill="#3C5EC4"/>
</svg>
