<svg width="14" height="14" viewBox="0 0 14 14" fill="none" xmlns="http://www.w3.org/2000/svg">
<path d="M13.0675 12.1829C13.1256 12.241 13.1717 12.3099 13.2031 12.3858C13.2345 12.4617 13.2507 12.543 13.2507 12.6251C13.2507 12.7072 13.2345 12.7885 13.2031 12.8644C13.1717 12.9403 13.1256 13.0092 13.0675 13.0673C13.0095 13.1254 12.9405 13.1714 12.8647 13.2028C12.7888 13.2343 12.7075 13.2505 12.6253 13.2505C12.5432 13.2505 12.4619 13.2343 12.386 13.2028C12.3102 13.1714 12.2412 13.1254 12.1832 13.0673L7.00035 7.8837L1.81753 13.0673C1.70026 13.1846 1.5412 13.2505 1.37535 13.2505C1.2095 13.2505 1.05044 13.1846 0.93316 13.0673C0.815885 12.95 0.75 12.791 0.75 12.6251C0.75 12.4593 0.815885 12.3002 0.93316 12.1829L6.11675 7.0001L0.93316 1.81729C0.815885 1.70002 0.75 1.54096 0.75 1.3751C0.75 1.20925 0.815885 1.05019 0.93316 0.932916C1.05044 0.81564 1.2095 0.749756 1.37535 0.749756C1.5412 0.749756 1.70026 0.81564 1.81753 0.932916L7.00035 6.11651L12.1832 0.932916C12.3004 0.81564 12.4595 0.749756 12.6253 0.749756C12.7912 0.749756 12.9503 0.81564 13.0675 0.932916C13.1848 1.05019 13.2507 1.20925 13.2507 1.3751C13.2507 1.54096 13.1848 1.70002 13.0675 1.81729L7.88394 7.0001L13.0675 12.1829Z" fill="#727688"/>
</svg>
