<svg width="10" height="10" viewBox="0 0 10 10" fill="none" xmlns="http://www.w3.org/2000/svg">
<path d="M5.02238 5.68506L5.00028 5.66296L4.97818 5.68506L0.831929 9.83193C0.743971 9.91989 0.624672 9.96931 0.500278 9.96931C0.375884 9.96931 0.256585 9.91989 0.168625 9.83193C0.0806653 9.74397 0.03125 9.62467 0.03125 9.50028C0.03125 9.37588 0.0806653 9.25659 0.168625 9.16862L4.3155 5.02238L4.3376 5.00028L4.3155 4.97818L0.168625 0.831931C0.168625 0.83193 0.168624 0.83193 0.168623 0.831929C0.0806647 0.74397 0.03125 0.624671 0.03125 0.500278C0.03125 0.375884 0.0806653 0.256585 0.168625 0.168625C0.256585 0.0806653 0.375884 0.03125 0.500278 0.03125C0.624671 0.03125 0.74397 0.0806647 0.831929 0.168623C0.83193 0.168624 0.83193 0.168625 0.831931 0.168625L4.97818 4.3155L5.00028 4.3376L5.02238 4.3155L9.16863 0.168623C9.25659 0.0806653 9.37588 0.03125 9.50028 0.03125C9.62467 0.03125 9.74397 0.0806653 9.83193 0.168625C9.91989 0.256585 9.96931 0.375884 9.96931 0.500278C9.96931 0.624672 9.91989 0.743971 9.83193 0.831931L5.68506 4.97818L5.66296 5.00028L5.68506 5.02238L9.83193 9.16862C9.87548 9.21218 9.91003 9.26388 9.9336 9.32079C9.95717 9.37769 9.96931 9.43869 9.96931 9.50028C9.96931 9.56187 9.95717 9.62286 9.9336 9.67977C9.91003 9.73667 9.87548 9.78838 9.83193 9.83193C9.78838 9.87548 9.73667 9.91003 9.67977 9.9336C9.62286 9.95717 9.56187 9.96931 9.50028 9.96931C9.43869 9.96931 9.37769 9.95717 9.32079 9.9336C9.26388 9.91003 9.21218 9.87548 9.16862 9.83193L5.02238 5.68506Z" fill="#9093A2" stroke="#464853" stroke-width="0.0625"/>
</svg>
