<svg width="24" height="18" viewBox="0 0 24 18" fill="none" xmlns="http://www.w3.org/2000/svg">
<path d="M5.05499 0.245688C4.98913 0.171444 4.90918 0.111011 4.81979 0.0678913C4.7304 0.0247716 4.63334 -0.000177125 4.53423 -0.00550877C4.43513 -0.0108404 4.33595 0.00355095 4.24245 0.0368313C4.14895 0.0701117 4.06298 0.121619 3.98953 0.188368C3.91608 0.255117 3.85661 0.335781 3.81457 0.425683C3.77252 0.515585 3.74874 0.612938 3.7446 0.7121C3.74045 0.811262 3.75603 0.91026 3.79043 1.00336C3.82483 1.09645 3.87737 1.18179 3.94499 1.25444L5.74874 3.23913C2.34374 5.32881 0.879366 8.55006 0.814679 8.69631C0.772035 8.79223 0.75 8.89603 0.75 9.001C0.75 9.10597 0.772035 9.20977 0.814679 9.30569C0.847491 9.37975 1.64155 11.1404 3.40687 12.9057C5.75905 15.2569 8.72999 16.5001 12 16.5001C13.6806 16.5096 15.3442 16.1636 16.8816 15.4848L18.9441 17.7544C19.0099 17.8287 19.0899 17.8891 19.1793 17.9322C19.2686 17.9754 19.3657 18.0003 19.4648 18.0056C19.5639 18.011 19.6631 17.9966 19.7566 17.9633C19.8501 17.93 19.9361 17.8785 20.0095 17.8118C20.083 17.745 20.1424 17.6643 20.1845 17.5744C20.2265 17.4845 20.2503 17.3872 20.2544 17.288C20.2586 17.1889 20.243 17.0899 20.2086 16.9968C20.1742 16.9037 20.1217 16.8183 20.0541 16.7457L5.05499 0.245688ZM9.49218 7.35569L13.3987 11.6541C12.8105 11.9636 12.136 12.069 11.4814 11.9536C10.8268 11.8382 10.229 11.5087 9.78188 11.0168C9.33481 10.5249 9.06377 9.89842 9.01134 9.23577C8.9589 8.57311 9.12804 7.9118 9.49218 7.35569ZM12 15.0001C9.11437 15.0001 6.59343 13.951 4.50655 11.8829C3.64997 11.0316 2.92145 10.0606 2.34374 9.00006C2.78343 8.176 4.18687 5.86975 6.7828 4.37069L8.4703 6.22225C7.81699 7.05897 7.48052 8.09972 7.52036 9.16054C7.56021 10.2214 7.97379 11.2339 8.68802 12.0193C9.40225 12.8047 10.3711 13.3122 11.4234 13.4523C12.4757 13.5924 13.5436 13.3559 14.4384 12.7847L15.8194 14.3035C14.6006 14.7711 13.3053 15.0073 12 15.0001ZM12.5625 6.0535C12.3671 6.0162 12.1944 5.9028 12.0826 5.73824C11.9708 5.57367 11.9289 5.37143 11.9662 5.176C12.0035 4.98057 12.1169 4.80796 12.2815 4.69614C12.4461 4.58432 12.6483 4.54245 12.8437 4.57975C13.7996 4.76506 14.67 5.25442 15.325 5.97483C15.98 6.69524 16.3846 7.6081 16.4784 8.57725C16.4969 8.77529 16.436 8.97258 16.3091 9.12571C16.1822 9.27885 15.9996 9.37528 15.8016 9.39381C15.7781 9.39519 15.7547 9.39519 15.7312 9.39381C15.5438 9.39462 15.3628 9.32519 15.224 9.19921C15.0852 9.07324 14.9986 8.89984 14.9812 8.71319C14.9181 8.06856 14.6486 7.46151 14.2128 6.98232C13.7771 6.50313 13.1982 6.17738 12.5625 6.0535ZM23.1825 9.30569C23.1431 9.39381 22.1934 11.4966 20.055 13.4119C19.9819 13.4795 19.8961 13.5318 19.8027 13.5658C19.7092 13.5999 19.6099 13.615 19.5105 13.6103C19.4111 13.6056 19.3136 13.5812 19.2238 13.5384C19.1339 13.4957 19.0535 13.4355 18.9871 13.3614C18.9208 13.2872 18.8698 13.2006 18.8373 13.1066C18.8047 13.0126 18.7912 12.913 18.7975 12.8138C18.8037 12.7145 18.8297 12.6174 18.8739 12.5282C18.918 12.4391 18.9795 12.3596 19.0547 12.2944C20.1038 11.3519 20.9851 10.2379 21.6609 9.00006C21.0819 7.9386 20.3518 6.96689 19.4934 6.11538C17.4066 4.04913 14.8856 3.00006 12 3.00006C11.392 2.99932 10.7849 3.04855 10.185 3.14725C10.0874 3.1645 9.98741 3.16226 9.89073 3.14064C9.79404 3.11902 9.70259 3.07845 9.62167 3.02129C9.54074 2.96413 9.47195 2.8915 9.41925 2.8076C9.36656 2.72369 9.33101 2.63018 9.31466 2.53247C9.29832 2.43475 9.30149 2.33476 9.32401 2.23827C9.34652 2.14179 9.38793 2.05072 9.44584 1.97033C9.50375 1.88994 9.57702 1.82182 9.6614 1.76991C9.74579 1.718 9.83963 1.68332 9.93749 1.66788C10.6192 1.55531 11.309 1.49919 12 1.50006C15.27 1.50006 18.2409 2.74319 20.5931 5.09538C22.3584 6.86069 23.1525 8.62225 23.1853 8.69631C23.2279 8.79223 23.25 8.89603 23.25 9.001C23.25 9.10597 23.2279 9.20977 23.1853 9.30569H23.1825Z" fill="#5D606F"/>
</svg>
