<svg width="20" height="19" viewBox="0 0 20 19" fill="none" xmlns="http://www.w3.org/2000/svg">
<path d="M8.99512 17.6387C10.2378 17.6387 11.2451 16.6313 11.2451 15.3887C11.2451 14.146 10.2378 13.1387 8.99512 13.1387C7.75248 13.1387 6.74512 14.146 6.74512 15.3887C6.74512 16.6313 7.75248 17.6387 8.99512 17.6387Z" stroke="#182136"/>
<path d="M14.8789 11.6274C16.1215 11.6274 17.1289 10.6201 17.1289 9.37744C17.1289 8.1348 16.1215 7.12744 14.8789 7.12744C13.6363 7.12744 12.6289 8.1348 12.6289 9.37744C12.6289 10.6201 13.6363 11.6274 14.8789 11.6274Z" stroke="#182136"/>
<path d="M5.82642 5.5C7.06906 5.5 8.07642 4.49264 8.07642 3.25C8.07642 2.00736 7.06906 1 5.82642 1C4.58377 1 3.57642 2.00736 3.57642 3.25C3.57642 4.49264 4.58377 5.5 5.82642 5.5Z" stroke="#182136"/>
<path d="M1 15.3887H6.745" stroke="#182136" stroke-linecap="round"/>
<path d="M11.2451 15.3887H19.2401" stroke="#182136" stroke-linecap="round"/>
<path d="M1 3.36621H3.58" stroke="#182136" stroke-linecap="round"/>
<path d="M8.07251 3.36621H19.24" stroke="#182136" stroke-linecap="round"/>
<path d="M1 9.37744H12.6287" stroke="#182136" stroke-linecap="round"/>
<path d="M17.1289 9.37744H19.2402" stroke="#182136" stroke-linecap="round"/>
</svg>
