<?xml version="1.0" encoding="UTF-8"?>
<svg width="46px" height="38px" viewBox="0 0 46 38" version="1.1" xmlns="http://www.w3.org/2000/svg" xmlns:xlink="http://www.w3.org/1999/xlink">
    <title>home</title>
    <g id="Page-1" stroke="none" stroke-width="1" fill="none" fill-rule="evenodd">
        <g id="home" fill="#8FA4BD" fill-rule="nonzero">
            <path d="M22.499699,8.36008677 L6.02889562,21.7841115 C6.02889562,21.803057 6.02407968,21.8309297 6.01444781,21.8689199 C6.0050166,21.9066125 6,21.9339893 6,21.9534307 L6,35.5466754 C6,36.0374729 6.1815006,36.4628043 6.54440147,36.8209833 C6.90720201,37.1793606 7.33682367,37.35969 7.83336678,37.35969 L18.8327648,37.35969 L18.8327648,26.4847768 L26.1667336,26.4847768 L26.1667336,37.3600868 L37.1660312,37.3600868 C37.662474,37.3600868 38.0926977,37.1801541 38.4549965,36.8209833 C38.8178974,36.463201 39,36.0375721 39,35.5466754 L39,21.9534307 C39,21.8780455 38.9895655,21.8211098 38.9711044,21.7841115 L22.499699,8.36008677 Z" id="Path"></path>
            <path d="M45.6827046,18.5690672 L39.4345464,13.2667032 L39.4345464,1.38000764 C39.4345464,1.10826684 39.3490017,0.884792431 39.1773128,0.709890544 C39.0070229,0.535192742 38.7881645,0.447843841 38.521437,0.447843841 L33.0433807,0.447843841 C32.776953,0.447843841 32.5581945,0.535192742 32.3868054,0.709890544 C32.215816,0.884792431 32.1303713,1.10836888 32.1303713,1.38000764 L32.1303713,7.06105361 L25.1686747,1.11755276 C24.560668,0.612541418 23.8377356,0.360086768 23.0006771,0.360086768 C22.1637185,0.360086768 21.4408861,0.612541418 20.8322798,1.11755276 L0.317050654,18.5690672 C0.126873675,18.7241727 0.0226411009,18.9329529 0.00325364227,19.1952037 C-0.016033881,19.4572504 0.0504231293,19.6861331 0.202824544,19.8802191 L1.97178024,22.0361859 C2.12418166,22.2108837 2.32365262,22.3177228 2.57099263,22.3568053 C2.79934491,22.3763976 3.02769719,22.3082328 3.25604948,22.1529232 L23.0000775,5.34213745 L42.7443053,22.1528212 C42.8968067,22.2883344 43.0961777,22.355989 43.3435177,22.355989 L43.4292623,22.355989 C43.6762025,22.3176208 43.8752737,22.2100674 44.0284746,22.0357777 L45.7976302,19.8801171 C45.9497318,19.6856229 46.0163887,19.4571484 45.9966015,19.1947955 C45.9771141,18.9332591 45.8724818,18.7244789 45.6827046,18.5690672 Z" id="Path"></path>
        </g>
    </g>
</svg>