<svg width="32" height="15" viewBox="0 0 32 15" fill="none" xmlns="http://www.w3.org/2000/svg">
<path d="M24.2123 13.8571C19.8048 13.8571 17.798 10.8039 16.0821 7.99883C15.1605 9.46126 14.2067 10.8513 12.9121 11.9325C11.3606 13.2277 9.54064 13.8571 7.34897 13.8571C5.77958 13.8571 4.19553 13.2407 3.00252 12.1662C1.71117 11.0032 1 9.41862 1 7.70376C1 5.87442 1.6322 4.20027 2.77981 2.99029C4.01443 1.68834 5.74412 1 7.7821 1C12.2543 1 14.2134 4.14327 16.0858 7.21421C16.1232 7.15434 16.1606 7.09398 16.1974 7.03411C17.1181 5.55204 18.0699 4.01921 19.2979 2.89209C20.6862 1.61888 22.2934 1 24.2123 1C26.2772 1 28.0007 1.64714 29.1971 2.87198C30.3792 4.08196 31.019 5.79874 30.9996 7.70616C30.9996 9.21361 30.3532 10.7349 29.2264 11.8774C28.3355 12.7803 26.7425 13.8571 24.2123 13.8571ZM16.3261 7.60844C18.0884 10.4954 19.9401 13.4409 24.2118 13.4409C28.2031 13.4409 30.5882 10.5237 30.5882 7.70376C30.6066 5.90603 30.0089 4.29512 28.9048 3.16465C27.7714 2.00449 26.1926 1.41626 24.2118 1.41626C20.1718 1.41626 18.4104 4.25297 16.545 7.25589C16.4722 7.37325 16.3989 7.49108 16.3261 7.60844ZM7.7821 1.41626C4.03098 1.41626 1.41091 4.00196 1.41091 7.70376C1.41091 11.4056 4.49295 13.4409 7.3485 13.4409C11.7815 13.4409 13.8322 10.8087 15.8419 7.60557L15.7908 7.52222C13.8767 4.3823 12.0685 1.41626 7.7821 1.41626Z" fill="#6381E0" stroke="#6381E0" stroke-width="0.4"/>
</svg>
