<svg width="17" height="17" viewBox="0 0 17 17" fill="none" xmlns="http://www.w3.org/2000/svg">
<g clip-path="url(#clip0_6822_199576)">
<path d="M8.2875 0C6.64839 0 5.04608 0.486054 3.68321 1.39669C2.32035 2.30734 1.25811 3.60167 0.630852 5.11601C0.00359081 6.63036 -0.160529 8.2967 0.159246 9.90428C0.479021 11.5119 1.26833 12.9886 2.42735 14.1477C3.58639 15.3067 5.06308 16.096 6.67069 16.4158C8.27831 16.7356 9.94466 16.5714 11.459 15.9441C12.9733 15.3169 14.2677 14.2547 15.1783 12.8918C16.089 11.5289 16.575 9.92664 16.575 8.2875C16.5727 6.09023 15.6988 3.98362 14.1451 2.42991C12.5914 0.876214 10.4848 0.00232036 8.2875 0ZM8.2875 15.3C6.90056 15.3 5.54477 14.8887 4.39157 14.1182C3.23836 13.3476 2.33956 12.2524 1.8088 10.971C1.27804 9.68966 1.13917 8.27972 1.40975 6.91943C1.68032 5.55914 2.3482 4.30963 3.32891 3.32891C4.30964 2.3482 5.55914 1.68032 6.91943 1.40974C8.27972 1.13916 9.68975 1.27803 10.971 1.80879C12.2524 2.33956 13.3476 3.23836 14.1182 4.39157C14.8888 5.54476 15.3 6.90056 15.3 8.2875C15.2979 10.1467 14.5584 11.9292 13.2438 13.2438C11.9292 14.5584 10.1467 15.2979 8.2875 15.3ZM9.5625 12.1125C9.5625 12.2816 9.49535 12.4437 9.37576 12.5633C9.25625 12.6829 9.09407 12.75 8.925 12.75C8.58687 12.75 8.26255 12.6157 8.02344 12.3766C7.78433 12.1375 7.65 11.8131 7.65 11.475V8.2875C7.48093 8.2875 7.31878 8.22033 7.19922 8.10078C7.07967 7.98123 7.0125 7.81907 7.0125 7.65C7.0125 7.48093 7.07967 7.31877 7.19922 7.19922C7.31878 7.07967 7.48093 7.0125 7.65 7.0125C7.98816 7.0125 8.31246 7.14683 8.5516 7.38594C8.7907 7.62504 8.925 7.94935 8.925 8.2875V11.475C9.09407 11.475 9.25625 11.5422 9.37576 11.6617C9.49535 11.7813 9.5625 11.9434 9.5625 12.1125ZM7.0125 4.78125C7.0125 4.59213 7.06858 4.40724 7.17366 4.24998C7.27874 4.09273 7.42808 3.97016 7.60282 3.89779C7.77754 3.82542 7.96981 3.80648 8.15531 3.84338C8.3408 3.88027 8.51122 3.97134 8.64493 4.10508C8.77863 4.23881 8.86975 4.4092 8.90664 4.59469C8.94353 4.78019 8.92458 4.97246 8.85224 5.14719C8.77982 5.32193 8.65725 5.47127 8.5 5.57634C8.34277 5.68142 8.15788 5.7375 7.96875 5.7375C7.71514 5.7375 7.47192 5.63675 7.29258 5.45742C7.11325 5.27809 7.0125 5.03486 7.0125 4.78125Z" fill="#EC6512"/>
</g>
<defs>
<clipPath id="clip0_6822_199576">
<rect width="17" height="17" fill="white"/>
</clipPath>
</defs>
</svg>
