<svg width="12" height="10" viewBox="0 0 12 10" fill="none" xmlns="http://www.w3.org/2000/svg">
<path d="M3.5 1C3.5 0.867392 3.55268 0.740215 3.64645 0.646447C3.74021 0.552679 3.86739 0.5 4 0.5H11.5C11.6326 0.5 11.7598 0.552679 11.8536 0.646447C11.9473 0.740215 12 0.867392 12 1C12 1.13261 11.9473 1.25979 11.8536 1.35355C11.7598 1.44732 11.6326 1.5 11.5 1.5H4C3.86739 1.5 3.74021 1.44732 3.64645 1.35355C3.55268 1.25979 3.5 1.13261 3.5 1ZM11.5 4.5H4C3.86739 4.5 3.74021 4.55268 3.64645 4.64645C3.55268 4.74021 3.5 4.86739 3.5 5C3.5 5.13261 3.55268 5.25979 3.64645 5.35355C3.74021 5.44732 3.86739 5.5 4 5.5H11.5C11.6326 5.5 11.7598 5.44732 11.8536 5.35355C11.9473 5.25979 12 5.13261 12 5C12 4.86739 11.9473 4.74021 11.8536 4.64645C11.7598 4.55268 11.6326 4.5 11.5 4.5ZM11.5 8.5H4C3.86739 8.5 3.74021 8.55268 3.64645 8.64645C3.55268 8.74021 3.5 8.86739 3.5 9C3.5 9.13261 3.55268 9.25979 3.64645 9.35355C3.74021 9.44732 3.86739 9.5 4 9.5H11.5C11.6326 9.5 11.7598 9.44732 11.8536 9.35355C11.9473 9.25979 12 9.13261 12 9C12 8.86739 11.9473 8.74021 11.8536 8.64645C11.7598 8.55268 11.6326 8.5 11.5 8.5ZM1.5 0.5H0.5C0.367392 0.5 0.240215 0.552679 0.146447 0.646447C0.0526785 0.740215 0 0.867392 0 1C0 1.13261 0.0526785 1.25979 0.146447 1.35355C0.240215 1.44732 0.367392 1.5 0.5 1.5H1.5C1.63261 1.5 1.75979 1.44732 1.85355 1.35355C1.94732 1.25979 2 1.13261 2 1C2 0.867392 1.94732 0.740215 1.85355 0.646447C1.75979 0.552679 1.63261 0.5 1.5 0.5ZM1.5 4.5H0.5C0.367392 4.5 0.240215 4.55268 0.146447 4.64645C0.0526785 4.74021 0 4.86739 0 5C0 5.13261 0.0526785 5.25979 0.146447 5.35355C0.240215 5.44732 0.367392 5.5 0.5 5.5H1.5C1.63261 5.5 1.75979 5.44732 1.85355 5.35355C1.94732 5.25979 2 5.13261 2 5C2 4.86739 1.94732 4.74021 1.85355 4.64645C1.75979 4.55268 1.63261 4.5 1.5 4.5ZM1.5 8.5H0.5C0.367392 8.5 0.240215 8.55268 0.146447 8.64645C0.0526785 8.74021 0 8.86739 0 9C0 9.13261 0.0526785 9.25979 0.146447 9.35355C0.240215 9.44732 0.367392 9.5 0.5 9.5H1.5C1.63261 9.5 1.75979 9.44732 1.85355 9.35355C1.94732 9.25979 2 9.13261 2 9C2 8.86739 1.94732 8.74021 1.85355 8.64645C1.75979 8.55268 1.63261 8.5 1.5 8.5Z" fill="#727688"/>
</svg>
