<svg width="14" height="16" viewBox="0 0 14 16" fill="none" xmlns="http://www.w3.org/2000/svg">
<path d="M12.625 5.625H10.375V3.9375C10.375 3.04239 10.0194 2.18395 9.38648 1.55101C8.75355 0.918079 7.8951 0.5625 7 0.5625C6.10489 0.5625 5.24645 0.918079 4.61351 1.55101C3.98058 2.18395 3.625 3.04239 3.625 3.9375V5.625H1.375C1.07663 5.625 0.790483 5.74353 0.579505 5.9545C0.368526 6.16548 0.25 6.45163 0.25 6.75V14.625C0.25 14.9234 0.368526 15.2095 0.579505 15.4205C0.790483 15.6315 1.07663 15.75 1.375 15.75H12.625C12.9234 15.75 13.2095 15.6315 13.4205 15.4205C13.6315 15.2095 13.75 14.9234 13.75 14.625V6.75C13.75 6.45163 13.6315 6.16548 13.4205 5.9545C13.2095 5.74353 12.9234 5.625 12.625 5.625ZM4.75 3.9375C4.75 3.34076 4.98705 2.76847 5.40901 2.34651C5.83097 1.92455 6.40326 1.6875 7 1.6875C7.59674 1.6875 8.16903 1.92455 8.59099 2.34651C9.01295 2.76847 9.25 3.34076 9.25 3.9375V5.625H4.75V3.9375ZM12.625 14.625H1.375V6.75H12.625V14.625ZM7.84375 10.6875C7.84375 10.8544 7.79426 11.0175 7.70155 11.1563C7.60884 11.295 7.47706 11.4032 7.32289 11.467C7.16871 11.5309 6.99906 11.5476 6.83539 11.515C6.67172 11.4825 6.52138 11.4021 6.40338 11.2841C6.28538 11.1661 6.20502 11.0158 6.17246 10.8521C6.13991 10.6884 6.15661 10.5188 6.22048 10.3646C6.28434 10.2104 6.39248 10.0787 6.53124 9.98595C6.66999 9.89323 6.83312 9.84375 7 9.84375C7.22378 9.84375 7.43839 9.93264 7.59662 10.0909C7.75485 10.2491 7.84375 10.4637 7.84375 10.6875Z" fill="#182136"/>
</svg>
