<svg width="32" height="33" viewBox="0 0 32 33" fill="none" xmlns="http://www.w3.org/2000/svg">
<path d="M18.142 18.8173L18.705 18.2516L19.9908 19.538L19.4277 20.1037L18.142 18.8173Z" fill="white"/>
<path d="M17.0586 19.9005L17.6149 19.3435L18.8985 20.6322L18.3421 21.1892L17.0586 19.9005Z" fill="white"/>
<path fill-rule="evenodd" clip-rule="evenodd" d="M17.9895 0.839695C16.8722 -0.279896 15.0609 -0.2799 13.9437 0.839692L0.837906 13.9734C-0.279303 15.093 -0.279302 16.9082 0.837907 18.0278L14.0105 31.2285C15.1278 32.3481 16.9391 32.3481 18.0563 31.2285L31.1621 18.0948C32.2793 16.9752 32.2793 15.16 31.1621 14.0404L17.9895 0.839695ZM14.6868 1.58438C15.3936 0.876065 16.5395 0.876066 17.2464 1.58438L22.639 6.98851L16.1683 13.441L9.4982 6.78403L14.6868 1.58438ZM3.57585 12.719L1.58101 14.7181C0.874202 15.4264 0.874202 16.5748 1.58101 17.2831L3.60819 19.3146L3.57585 12.719ZM9.41305 25.1319L14.7536 30.4839C15.4605 31.1922 16.6064 31.1922 17.3132 30.4839L22.8971 24.888V16.5778L20.4626 19.0187C19.4324 17.9912 18.4022 16.9638 17.372 15.9309L16.1303 17.1812C14.829 18.2522 13.1319 16.6213 14.2814 15.3274L15.4797 14.126L9.42319 8.05907V15.2078L12.0041 17.7955L12.3457 17.4531C12.953 16.942 14.0266 17.7249 14.0266 18.4588C14.4983 18.3827 15.2303 18.9209 15.2086 19.5352C15.6478 19.5515 16.2551 20.0136 16.2496 20.6279C16.5153 20.6279 16.8244 20.7964 17.0467 21.0519L17.7461 21.7532L16.1737 23.3297L15.9189 23.0742L15.6478 22.8078C15.9894 22.4708 16.3255 22.1337 16.6617 21.7967L16.1575 21.2911L15.1489 22.3023L14.585 21.7369C14.9266 21.3998 15.2628 21.0628 15.599 20.7257L15.0568 20.1821C14.7152 20.5191 14.379 20.8562 14.0428 21.1932L13.4844 20.6333L14.4929 19.6167L13.9615 19.084C13.7934 19.2525 13.6253 19.4224 13.4572 19.5923C13.2891 19.7622 13.1211 19.932 12.953 20.1005L12.3891 19.5352C12.557 19.3668 12.7263 19.1984 12.8956 19.03L12.8965 19.0291C13.0658 18.8608 13.2351 18.6924 13.403 18.524L12.8771 17.9967L11.8631 19.0133L9.41777 16.5615L9.41305 25.1319ZM27.7228 20.0521L23.8406 23.9426V15.6373L27.5114 11.9569L27.7228 12.1689V20.0521ZM28.7271 19.0456L30.419 17.3501C31.1258 16.6418 31.1258 15.4934 30.419 14.7851L28.6663 13.0286L28.7271 19.0456ZM8.49058 24.1234L4.60835 20.231V12.1744L4.83066 11.9515L8.49058 15.621V24.1234ZM8.49058 14.2565L5.50842 11.2665L8.49058 8.27652V14.2565ZM22.9026 15.1915L20.4084 17.6923L17.3341 14.6153L15.4526 16.4963C15.073 16.9149 14.5037 16.4201 14.9646 16.0124L22.8971 8.0482V15.1915H22.9026ZM23.8406 8.27652L26.8227 11.2665L23.8406 14.2511V8.27652Z" fill="white"/>
</svg>
