<svg width="14" height="20" viewBox="0 0 14 20" fill="none" xmlns="http://www.w3.org/2000/svg">
<path d="M13.875 7.49993C13.8757 6.34134 13.5836 5.20136 13.0258 4.18589C12.468 3.17041 11.6626 2.31237 10.6844 1.69147C9.70623 1.07057 8.58701 0.706936 7.43069 0.634355C6.27438 0.561774 5.11847 0.782595 4.07034 1.27631C3.02221 1.77002 2.11584 2.52062 1.43544 3.45837C0.755032 4.39612 0.32265 5.49062 0.178455 6.64021C0.03426 7.78979 0.182928 8.95717 0.61065 10.0339C1.03837 11.1107 1.73128 12.0619 2.625 12.7992V18.7499C2.62492 18.8565 2.65211 18.9614 2.70397 19.0545C2.75584 19.1476 2.83065 19.2259 2.92131 19.282C3.01197 19.338 3.11546 19.37 3.22195 19.3748C3.32843 19.3795 3.43437 19.357 3.52969 19.3093L7 17.5781L10.4711 19.3132C10.5581 19.3549 10.6535 19.376 10.75 19.3749C10.9158 19.3749 11.0747 19.3091 11.1919 19.1919C11.3092 19.0747 11.375 18.9157 11.375 18.7499V12.7992C12.157 12.1551 12.7867 11.3459 13.2189 10.4297C13.6512 9.51352 13.8752 8.51298 13.875 7.49993ZM1.375 7.49993C1.375 6.38741 1.7049 5.29988 2.32298 4.37485C2.94107 3.44982 3.81957 2.72885 4.84741 2.30311C5.87524 1.87737 7.00624 1.76597 8.09738 1.98301C9.18853 2.20006 10.1908 2.73579 10.9775 3.52246C11.7641 4.30913 12.2999 5.31141 12.5169 6.40255C12.734 7.49369 12.6226 8.62469 12.1968 9.65253C11.7711 10.6804 11.0501 11.5589 10.1251 12.1769C9.20006 12.795 8.11252 13.1249 7 13.1249C5.50867 13.1233 4.07889 12.5301 3.02435 11.4756C1.96982 10.421 1.37666 8.99127 1.375 7.49993ZM10.125 17.739L7.27891 16.3163C7.19208 16.2729 7.09631 16.2503 6.99922 16.2503C6.90212 16.2503 6.80636 16.2729 6.71953 16.3163L3.875 17.739V13.6226C4.84247 14.1171 5.91348 14.3749 7 14.3749C8.08652 14.3749 9.15753 14.1171 10.125 13.6226V17.739ZM7 11.8749C7.86529 11.8749 8.71116 11.6183 9.43062 11.1376C10.1501 10.6569 10.7108 9.9736 11.042 9.17417C11.3731 8.37475 11.4597 7.49508 11.2909 6.64641C11.1221 5.79775 10.7054 5.01819 10.0936 4.40634C9.48174 3.79449 8.70219 3.37781 7.85352 3.209C7.00485 3.04019 6.12519 3.12683 5.32576 3.45796C4.52633 3.78909 3.84305 4.34985 3.36232 5.06931C2.88159 5.78878 2.625 6.63464 2.625 7.49993C2.62624 8.65987 3.08758 9.77195 3.90778 10.5922C4.72798 11.4124 5.84006 11.8737 7 11.8749ZM7 4.37493C7.61807 4.37493 8.22225 4.55821 8.73616 4.90159C9.25006 5.24497 9.6506 5.73303 9.88712 6.30405C10.1236 6.87507 10.1855 7.5034 10.065 8.10959C9.94438 8.71578 9.64675 9.2726 9.20971 9.70964C8.77267 10.1467 8.21585 10.4443 7.60966 10.5649C7.00347 10.6855 6.37513 10.6236 5.80412 10.3871C5.2331 10.1505 4.74504 9.74999 4.40166 9.23609C4.05828 8.72219 3.875 8.118 3.875 7.49993C3.875 6.67113 4.20424 5.87627 4.79029 5.29022C5.37634 4.70417 6.1712 4.37493 7 4.37493Z" fill="#EC6512"/>
</svg>
