<svg width="16" height="4" viewBox="0 0 16 4" fill="none" xmlns="http://www.w3.org/2000/svg">
<path d="M1.125 2.00016C1.125 1.42867 1.59518 0.958496 2.16667 0.958496C2.73816 0.958496 3.20833 1.42867 3.20833 2.00016C3.20833 2.57165 2.73816 3.04183 2.16667 3.04183C1.59518 3.04183 1.125 2.57165 1.125 2.00016Z" fill="#3C5EC4" stroke="#3C5EC4" stroke-width="1.25"/>
<path d="M12.793 2.00016C12.793 1.42867 13.2631 0.958496 13.8346 0.958496C14.4061 0.958496 14.8763 1.42867 14.8763 2.00016C14.8763 2.57165 14.4061 3.04183 13.8346 3.04183C13.2631 3.04183 12.793 2.57165 12.793 2.00016Z" fill="#3C5EC4" stroke="#3C5EC4" stroke-width="1.25"/>
<path d="M7.9987 0.333496C7.08203 0.333496 6.33203 1.0835 6.33203 2.00016C6.33203 2.91683 7.08203 3.66683 7.9987 3.66683C8.91536 3.66683 9.66536 2.91683 9.66536 2.00016C9.66536 1.0835 8.91536 0.333496 7.9987 0.333496Z" fill="#3C5EC4"/>
</svg>
