<?xml version="1.0" encoding="UTF-8"?>
<svg width="100px" height="100px" viewBox="0 0 100 100" version="1.1" xmlns="http://www.w3.org/2000/svg" xmlns:xlink="http://www.w3.org/1999/xlink">
    <title>Group</title>
    <g id="Page-1" stroke="none" stroke-width="1" fill="none" fill-rule="evenodd">
        <g id="Group">
            <circle id="Oval" fill="#DEE4E9" cx="50" cy="50" r="50"></circle>
            <g id="camera" transform="translate(31.000000, 35.000000)" fill="#899AAE" fill-rule="nonzero">
                <path d="M24.5675135,18.0017297 C24.5675135,21.3056757 21.8797838,23.9934054 18.5758378,23.9934054 C15.2718919,23.9934054 12.5851892,21.3056757 12.5851892,18.0017297 C12.5851892,14.6977838 15.2718919,12.0100541 18.5758378,12.0100541 C21.8797838,12.0100541 24.5675135,14.6988108 24.5675135,18.0017297 Z M37.1516757,9.49383784 L37.1516757,26.5116757 C37.1516757,28.7803784 35.3122703,30.6197838 33.0435676,30.6197838 L4.10810811,30.6197838 C1.83940541,30.6197838 0,28.7803784 0,26.5116757 L0,9.49383784 C0,7.22513514 1.83940541,5.38572973 4.10810811,5.38572973 L9.16108108,5.38572973 L9.16108108,3.96432432 C9.16108108,1.97908108 10.7694054,0.36972973 12.7556757,0.36972973 L24.396,0.36972973 C26.3822703,0.36972973 27.9905946,1.97908108 27.9905946,3.96432432 L27.9905946,5.3847027 L33.0435676,5.3847027 C35.3122703,5.38572973 37.1516757,7.22513514 37.1516757,9.49383784 Z M27.6485946,18.0017297 C27.6485946,12.9990811 23.5784865,8.92897297 18.5758378,8.92897297 C13.5742162,8.92897297 9.50410811,12.9990811 9.50410811,18.0017297 C9.50410811,23.0043784 13.5742162,27.0744865 18.5758378,27.0744865 C23.5784865,27.0744865 27.6485946,23.0043784 27.6485946,18.0017297 Z" id="Shape"></path>
            </g>
            <line x1="30" y1="35" x2="63" y2="68" id="Line" stroke="#DEE4E9" stroke-width="3" stroke-linecap="round"></line>
            <line x1="31" y1="34" x2="64" y2="67" id="Line" stroke="#899AAE" stroke-width="3" stroke-linecap="round"></line>
        </g>
    </g>
</svg>