<svg width="15" height="18" viewBox="0 0 15 18" fill="none" xmlns="http://www.w3.org/2000/svg">
<path d="M14.3794 8.55781C14.4375 8.61586 14.4836 8.68479 14.5151 8.76066C14.5465 8.83653 14.5627 8.91786 14.5627 9C14.5627 9.08213 14.5465 9.16346 14.5151 9.23934C14.4836 9.31521 14.4375 9.38414 14.3794 9.44219L7.96925 15.8484C7.14863 16.669 6.03568 17.1299 4.87522 17.1298C3.71477 17.1297 2.60187 16.6687 1.78136 15.848C0.960845 15.0274 0.499927 13.9145 0.5 12.754C0.500073 11.5936 0.961132 10.4807 1.78175 9.66015L9.53644 1.7914C10.1223 1.20492 10.9171 0.875196 11.7461 0.874756C12.5751 0.874317 13.3703 1.2032 13.9567 1.78906C14.5432 2.37492 14.873 3.16976 14.8734 3.99873C14.8738 4.8277 14.545 5.62289 13.9591 6.20937L6.20284 14.0781C5.8506 14.4304 5.37286 14.6283 4.87472 14.6283C4.37657 14.6283 3.89883 14.4304 3.54659 14.0781C3.19435 13.7259 2.99647 13.2481 2.99647 12.75C2.99647 12.2519 3.19435 11.7741 3.54659 11.4219L10.0544 4.81094C10.1114 4.75012 10.18 4.70133 10.2562 4.66742C10.3323 4.63351 10.4145 4.61518 10.4978 4.6135C10.5811 4.61183 10.664 4.62684 10.7414 4.65765C10.8189 4.68847 10.8894 4.73446 10.9488 4.79293C11.0082 4.8514 11.0553 4.92117 11.0874 4.99812C11.1194 5.07507 11.1357 5.15765 11.1354 5.24101C11.135 5.32436 11.118 5.40681 11.0853 5.48349C11.0526 5.56017 11.0049 5.62953 10.945 5.6875L4.43644 12.3055C4.37816 12.3633 4.33185 12.432 4.30013 12.5077C4.26842 12.5834 4.25193 12.6646 4.2516 12.7467C4.25127 12.8288 4.26712 12.9102 4.29823 12.9861C4.32934 13.0621 4.37511 13.1312 4.43292 13.1895C4.49073 13.2477 4.55946 13.294 4.63517 13.3258C4.71088 13.3575 4.7921 13.374 4.87419 13.3743C4.95627 13.3746 5.03762 13.3588 5.11358 13.3277C5.18954 13.2965 5.25863 13.2508 5.31691 13.193L13.0724 5.32812C13.4246 4.97661 13.6228 4.49956 13.6233 4.00193C13.6238 3.5043 13.4266 3.02685 13.0751 2.67461C12.7236 2.32237 12.2465 2.12419 11.7489 2.12368C11.2513 2.12317 10.7738 2.32036 10.4216 2.67187L2.66847 10.5375C2.37802 10.8275 2.14753 11.1718 1.99017 11.5509C1.8328 11.93 1.75164 12.3363 1.75131 12.7467C1.75099 13.1572 1.8315 13.5636 1.98827 13.9429C2.14503 14.3223 2.37497 14.667 2.66495 14.9574C2.95494 15.2479 3.29929 15.4784 3.67835 15.6357C4.05741 15.7931 4.46376 15.8742 4.87419 15.8746C5.28461 15.8749 5.69109 15.7944 6.0704 15.6376C6.44971 15.4809 6.79443 15.2509 7.08487 14.9609L13.4958 8.55469C13.6134 8.43798 13.7726 8.37275 13.9383 8.37333C14.1039 8.37392 14.2626 8.44027 14.3794 8.55781Z" fill="#464853"/>
</svg>
