<svg width="16" height="16" viewBox="0 0 16 16" fill="none" xmlns="http://www.w3.org/2000/svg">
<path fill-rule="evenodd" clip-rule="evenodd" d="M7.99932 0.253382C8.3445 0.253382 8.62432 0.533204 8.62432 0.878382V15.1216C8.62432 15.4668 8.3445 15.7466 7.99932 15.7466C7.65414 15.7466 7.37432 15.4668 7.37432 15.1216V0.878382C7.37432 0.533204 7.65414 0.253382 7.99932 0.253382Z" fill="#3C5EC4"/>
<path fill-rule="evenodd" clip-rule="evenodd" d="M0.252704 8C0.252704 7.65482 0.532526 7.375 0.877704 7.375L15.1209 7.375C15.4661 7.375 15.7459 7.65482 15.7459 8C15.7459 8.34518 15.4661 8.625 15.1209 8.625L0.877704 8.625C0.532526 8.625 0.252704 8.34518 0.252704 8Z" fill="#3C5EC4"/>
</svg>
