<svg width="16" height="14" viewBox="0 0 16 14" fill="none" xmlns="http://www.w3.org/2000/svg">
<path d="M14.1907 2.91667H13.1429V0.583333C13.1429 0.428624 13.0827 0.280251 12.9755 0.170854C12.8683 0.0614583 12.723 0 12.5714 0H3.42857C3.27702 0 3.13167 0.0614583 3.02451 0.170854C2.91735 0.280251 2.85714 0.428624 2.85714 0.583333V2.91667H1.80929C0.811429 2.91667 0 3.70198 0 4.66667V10.5C0 10.6547 0.0602039 10.8031 0.167368 10.9125C0.274531 11.0219 0.419876 11.0833 0.571429 11.0833H2.85714V13.4167C2.85714 13.5714 2.91735 13.7197 3.02451 13.8291C3.13167 13.9385 3.27702 14 3.42857 14H12.5714C12.723 14 12.8683 13.9385 12.9755 13.8291C13.0827 13.7197 13.1429 13.5714 13.1429 13.4167V11.0833H15.4286C15.5801 11.0833 15.7255 11.0219 15.8326 10.9125C15.9398 10.8031 16 10.6547 16 10.5V4.66667C16 3.70198 15.1886 2.91667 14.1907 2.91667ZM4 1.16667H12V2.91667H4V1.16667ZM12 12.8333H4V9.33333H12V12.8333ZM14.8571 9.91667H13.1429V8.75C13.1429 8.59529 13.0827 8.44692 12.9755 8.33752C12.8683 8.22812 12.723 8.16667 12.5714 8.16667H3.42857C3.27702 8.16667 3.13167 8.22812 3.02451 8.33752C2.91735 8.44692 2.85714 8.59529 2.85714 8.75V9.91667H1.14286V4.66667C1.14286 4.3451 1.44214 4.08333 1.80929 4.08333H14.1907C14.5579 4.08333 14.8571 4.3451 14.8571 4.66667V9.91667ZM13.1429 6.125C13.1429 6.29806 13.0926 6.46723 12.9984 6.61112C12.9042 6.75502 12.7704 6.86717 12.6137 6.93339C12.4571 6.99962 12.2848 7.01695 12.1185 6.98319C11.9522 6.94942 11.7995 6.86609 11.6796 6.74372C11.5598 6.62135 11.4781 6.46544 11.445 6.2957C11.412 6.12597 11.4289 5.95004 11.4938 5.79015C11.5587 5.63027 11.6686 5.49361 11.8095 5.39746C11.9505 5.30132 12.1162 5.25 12.2857 5.25C12.513 5.25 12.7311 5.34219 12.8918 5.50628C13.0526 5.67038 13.1429 5.89294 13.1429 6.125Z" fill="#3C5EC4"/>
</svg>
