<svg width="16" height="14" viewBox="0 0 16 14" fill="none" xmlns="http://www.w3.org/2000/svg">
<path d="M13.969 2.8125H12.9375V0.5625C12.9375 0.413316 12.8782 0.270242 12.7727 0.164753C12.6673 0.0592633 12.5242 0 12.375 0H3.375C3.22582 0 3.08274 0.0592633 2.97725 0.164753C2.87176 0.270242 2.8125 0.413316 2.8125 0.5625V2.8125H1.78102C0.79875 2.8125 0 3.56977 0 4.5V10.125C0 10.2742 0.0592632 10.4173 0.164752 10.5227C0.270242 10.6282 0.413316 10.6875 0.5625 10.6875H2.8125V12.9375C2.8125 13.0867 2.87176 13.2298 2.97725 13.3352C3.08274 13.4407 3.22582 13.5 3.375 13.5H12.375C12.5242 13.5 12.6673 13.4407 12.7727 13.3352C12.8782 13.2298 12.9375 13.0867 12.9375 12.9375V10.6875H15.1875C15.3367 10.6875 15.4798 10.6282 15.5852 10.5227C15.6907 10.4173 15.75 10.2742 15.75 10.125V4.5C15.75 3.56977 14.9512 2.8125 13.969 2.8125ZM3.9375 1.125H11.8125V2.8125H3.9375V1.125ZM11.8125 12.375H3.9375V9H11.8125V12.375ZM14.625 9.5625H12.9375V8.4375C12.9375 8.28832 12.8782 8.14524 12.7727 8.03975C12.6673 7.93426 12.5242 7.875 12.375 7.875H3.375C3.22582 7.875 3.08274 7.93426 2.97725 8.03975C2.87176 8.14524 2.8125 8.28832 2.8125 8.4375V9.5625H1.125V4.5C1.125 4.18992 1.41961 3.9375 1.78102 3.9375H13.969C14.3304 3.9375 14.625 4.18992 14.625 4.5V9.5625ZM12.9375 5.90625C12.9375 6.07313 12.888 6.23626 12.7953 6.37501C12.7026 6.51377 12.5708 6.62191 12.4166 6.68577C12.2625 6.74963 12.0928 6.76634 11.9291 6.73379C11.7655 6.70123 11.6151 6.62087 11.4971 6.50287C11.3791 6.38487 11.2988 6.23453 11.2662 6.07086C11.2337 5.90719 11.2504 5.73754 11.3142 5.58336C11.3781 5.42919 11.4862 5.29741 11.625 5.2047C11.7637 5.11198 11.9269 5.0625 12.0938 5.0625C12.3175 5.0625 12.5321 5.15139 12.6904 5.30963C12.8486 5.46786 12.9375 5.68247 12.9375 5.90625Z" fill="white"/>
</svg>
