<svg width="15" height="15" viewBox="0 0 15 15" fill="none" xmlns="http://www.w3.org/2000/svg">
<path d="M7.3125 0C8.75877 0 10.1726 0.428871 11.3751 1.23238C12.5776 2.03589 13.5149 3.17794 14.0684 4.51413C14.6218 5.85031 14.7666 7.32061 14.4845 8.7391C14.2023 10.1576 13.5059 11.4605 12.4832 12.4832C11.4605 13.5059 10.1576 14.2023 8.7391 14.4845C7.32061 14.7666 5.85031 14.6218 4.51413 14.0684C3.17794 13.5149 2.03588 12.5776 1.23238 11.3751C0.428869 10.1726 -1.66893e-06 8.75878 -1.66893e-06 7.3125C0.0020457 5.37373 0.773125 3.51496 2.14404 2.14404C3.51496 0.773127 5.37373 0.00204737 7.3125 0ZM1.125 7.3125C1.12356 8.7592 1.63163 10.1602 2.56008 11.2697L11.2697 2.55937C10.3662 1.80772 9.26726 1.32894 8.10156 1.17905C6.93586 1.02917 5.75158 1.21439 4.68731 1.71304C3.62303 2.21169 2.72279 3.00314 2.09193 3.99477C1.46106 4.9864 1.12567 6.1372 1.125 7.3125ZM13.5 7.3125C13.5014 5.8658 12.9934 4.46479 12.0649 3.35531L3.35531 12.0656C4.25882 12.8173 5.35773 13.2961 6.52343 13.4459C7.68913 13.5958 8.87341 13.4106 9.93769 12.912C11.002 12.4133 11.9022 11.6219 12.5331 10.6302C13.1639 9.6386 13.4993 8.4878 13.5 7.3125Z" fill="#EC3912"/>
</svg>
