<svg width="15" height="14" viewBox="0 0 15 14" fill="none" xmlns="http://www.w3.org/2000/svg">
<path d="M7.02229 0.545907C7.16748 0.0760678 7.83252 0.0760673 7.97771 0.545906L9.16162 4.37711C9.22636 4.58661 9.42005 4.72949 9.63933 4.72949H13.5219C14.0001 4.72949 14.2054 5.33648 13.8254 5.62682L10.6419 8.05878C10.4754 8.18599 10.4059 8.40353 10.4677 8.60373L11.6734 12.5054C11.8171 12.9705 11.279 13.3459 10.8922 13.0504L7.80353 10.6909C7.62433 10.554 7.37567 10.554 7.19647 10.6909L4.10784 13.0504C3.721 13.3459 3.18287 12.9705 3.3266 12.5054L4.53228 8.60373C4.59415 8.40353 4.52462 8.18599 4.3581 8.05878L1.17462 5.62682C0.794561 5.33648 0.999881 4.72949 1.47815 4.72949H5.36067C5.57995 4.72949 5.77364 4.58661 5.83838 4.37711L7.02229 0.545907Z" fill="#EC6512"/>
</svg>
