<svg width="17" height="18" viewBox="0 0 17 18" fill="none" xmlns="http://www.w3.org/2000/svg">
<path d="M15.8125 2.75H12.375V2.0625C12.375 1.51549 12.1577 0.990886 11.7709 0.604092C11.3841 0.217299 10.8595 0 10.3125 0H6.1875C5.64049 0 5.11589 0.217299 4.72909 0.604092C4.3423 0.990886 4.125 1.51549 4.125 2.0625V2.75H0.6875C0.505164 2.75 0.330295 2.82243 0.201364 2.95136C0.072433 3.0803 0 3.25516 0 3.4375C0 3.61984 0.072433 3.7947 0.201364 3.92364C0.330295 4.05257 0.505164 4.125 0.6875 4.125H1.375V16.5C1.375 16.8647 1.51987 17.2144 1.77773 17.4723C2.03559 17.7301 2.38533 17.875 2.75 17.875H13.75C14.1147 17.875 14.4644 17.7301 14.7223 17.4723C14.9801 17.2144 15.125 16.8647 15.125 16.5V4.125H15.8125C15.9948 4.125 16.1697 4.05257 16.2986 3.92364C16.4276 3.7947 16.5 3.61984 16.5 3.4375C16.5 3.25516 16.4276 3.0803 16.2986 2.95136C16.1697 2.82243 15.9948 2.75 15.8125 2.75ZM5.5 2.0625C5.5 1.88016 5.57243 1.7053 5.70136 1.57636C5.8303 1.44743 6.00516 1.375 6.1875 1.375H10.3125C10.4948 1.375 10.6697 1.44743 10.7986 1.57636C10.9276 1.7053 11 1.88016 11 2.0625V2.75H5.5V2.0625ZM13.75 16.5H2.75V4.125H13.75V16.5ZM6.875 7.5625V13.0625C6.875 13.2448 6.80257 13.4197 6.67364 13.5486C6.5447 13.6776 6.36984 13.75 6.1875 13.75C6.00516 13.75 5.8303 13.6776 5.70136 13.5486C5.57243 13.4197 5.5 13.2448 5.5 13.0625V7.5625C5.5 7.38016 5.57243 7.2053 5.70136 7.07636C5.8303 6.94743 6.00516 6.875 6.1875 6.875C6.36984 6.875 6.5447 6.94743 6.67364 7.07636C6.80257 7.2053 6.875 7.38016 6.875 7.5625ZM11 7.5625V13.0625C11 13.2448 10.9276 13.4197 10.7986 13.5486C10.6697 13.6776 10.4948 13.75 10.3125 13.75C10.1302 13.75 9.95529 13.6776 9.82636 13.5486C9.69743 13.4197 9.625 13.2448 9.625 13.0625V7.5625C9.625 7.38016 9.69743 7.2053 9.82636 7.07636C9.95529 6.94743 10.1302 6.875 10.3125 6.875C10.4948 6.875 10.6697 6.94743 10.7986 7.07636C10.9276 7.2053 11 7.38016 11 7.5625Z" fill="#727688"/>
</svg>
