<svg width="22" height="22" viewBox="0 0 22 22" fill="none" xmlns="http://www.w3.org/2000/svg">
<path fill-rule="evenodd" clip-rule="evenodd" d="M14.5942 16.5116C12.2451 15.1628 9.25532 15.1628 6.90622 16.5116C6.76905 16.5904 6.62117 16.6713 6.46801 16.7552C5.91588 17.0574 5.2953 17.3972 4.86183 17.8063C4.59169 18.0613 4.51287 18.2398 4.50183 18.3372C4.49654 18.3838 4.48677 18.5464 4.8119 18.8451C5.59966 19.5688 6.38211 20 7.32089 20H14.1795C15.1183 20 15.9008 19.5688 16.6885 18.8451C17.0137 18.5464 17.0039 18.3838 16.9986 18.3372C16.9876 18.2398 16.9087 18.0613 16.6386 17.8063C16.2051 17.3972 15.5845 17.0574 15.0324 16.7552C14.8793 16.6713 14.7314 16.5904 14.5942 16.5116ZM15.3411 15.2108L14.9677 15.8612L15.3411 15.2108C15.4265 15.2598 15.5339 15.3182 15.6568 15.385C16.2092 15.6852 17.0755 16.156 17.6682 16.7154C18.0372 17.0638 18.419 17.5499 18.4891 18.1682C18.5649 18.8372 18.2568 19.4413 17.7033 19.9497C16.7743 20.8032 15.6447 21.5 14.1795 21.5H7.32089C5.85575 21.5 4.72614 20.8032 3.79711 19.9497C3.24363 19.4413 2.93554 18.8372 3.01137 18.1682C3.08146 17.5499 3.4632 17.0638 3.83224 16.7154C4.42492 16.156 5.29126 15.6852 5.84358 15.385C5.96656 15.3182 6.07397 15.2598 6.15932 15.2108C8.97095 13.5964 12.5295 13.5964 15.3411 15.2108Z" fill="#3C5EC4"/>
<path fill-rule="evenodd" clip-rule="evenodd" d="M10.75 6C9.23122 6 8 7.23122 8 8.75C8 10.2688 9.23122 11.5 10.75 11.5C12.2688 11.5 13.5 10.2688 13.5 8.75C13.5 7.23122 12.2688 6 10.75 6ZM6.5 8.75C6.5 6.40279 8.40279 4.5 10.75 4.5C13.0972 4.5 15 6.40279 15 8.75C15 11.0972 13.0972 13 10.75 13C8.40279 13 6.5 11.0972 6.5 8.75Z" fill="#3C5EC4"/>
<path fill-rule="evenodd" clip-rule="evenodd" d="M10.75 1.5C5.63885 1.5 1.5 5.62801 1.5 10.7146C1.5 12.0438 1.78208 13.3055 2.28921 14.4451C2.45763 14.8235 2.28737 15.2668 1.90894 15.4352C1.53051 15.6036 1.08721 15.4334 0.918794 15.0549C0.32793 13.7272 0 12.2581 0 10.7146C0 4.79456 4.81545 0 10.75 0C16.6845 0 21.5 4.79456 21.5 10.7146C21.5 12.2581 21.1721 13.7272 20.5812 15.0549C20.4128 15.4334 19.9695 15.6036 19.5911 15.4352C19.2126 15.2668 19.0424 14.8235 19.2108 14.4451C19.7179 13.3055 20 12.0438 20 10.7146C20 5.62801 15.8611 1.5 10.75 1.5Z" fill="#3C5EC4"/>
</svg>
