<svg width="19" height="14" viewBox="0 0 19 14" fill="none" xmlns="http://www.w3.org/2000/svg">
<path d="M18.7498 8.12812C18.7498 8.29388 18.6839 8.45286 18.5667 8.57007C18.4495 8.68728 18.2906 8.75312 18.1248 8.75312H14.3748C14.209 8.75312 14.0501 8.68728 13.9329 8.57007C13.8156 8.45286 13.7498 8.29388 13.7498 8.12812C13.7498 7.96236 13.8156 7.80339 13.9329 7.68618C14.0501 7.56897 14.209 7.50312 14.3748 7.50312H18.1248C18.2906 7.50312 18.4495 7.56897 18.5667 7.68618C18.6839 7.80339 18.7498 7.96236 18.7498 8.12812ZM14.2287 12.7258C14.3354 12.8528 14.3873 13.017 14.3729 13.1823C14.3586 13.3475 14.2792 13.5003 14.1521 13.607C14.0251 13.7137 13.8609 13.7656 13.6957 13.7513C13.5304 13.7369 13.3776 13.6575 13.2709 13.5305C11.699 11.6586 9.53808 10.6281 7.1873 10.6281C4.83652 10.6281 2.67558 11.6586 1.1037 13.5305C0.996995 13.6574 0.844243 13.7367 0.679049 13.751C0.513856 13.7653 0.349754 13.7133 0.222844 13.6066C0.0959337 13.4999 0.0166111 13.3472 0.00232615 13.182C-0.0119589 13.0168 0.0399639 12.8527 0.146672 12.7258C1.31386 11.3367 2.76542 10.35 4.3787 9.82187C3.39894 9.21164 2.64458 8.29892 2.22975 7.22178C1.81491 6.14464 1.76218 4.9617 2.07952 3.85192C2.39687 2.74214 3.06702 1.76591 3.9886 1.07092C4.91018 0.375931 6.03304 0 7.1873 0C8.34156 0 9.46441 0.375931 10.386 1.07092C11.3076 1.76591 11.9777 2.74214 12.2951 3.85192C12.6124 4.9617 12.5597 6.14464 12.1448 7.22178C11.73 8.29892 10.9757 9.21164 9.99589 9.82187C11.6092 10.35 13.0607 11.3367 14.2287 12.7258ZM7.1873 9.37812C7.99078 9.37812 8.77623 9.13986 9.4443 8.69347C10.1124 8.24708 10.6331 7.6126 10.9406 6.87028C11.248 6.12795 11.3285 5.31112 11.1717 4.52307C11.015 3.73502 10.6281 3.01115 10.0599 2.443C9.49177 1.87485 8.7679 1.48794 7.97985 1.33118C7.1918 1.17443 6.37497 1.25488 5.63265 1.56236C4.89032 1.86984 4.25584 2.39055 3.80945 3.05862C3.36306 3.7267 3.1248 4.51214 3.1248 5.31562C3.12604 6.39269 3.55445 7.42528 4.31605 8.18687C5.07764 8.94847 6.11024 9.37688 7.1873 9.37812Z" fill="#EC3912"/>
</svg>
