<svg width="19" height="14" viewBox="0 0 19 14" fill="none" xmlns="http://www.w3.org/2000/svg">
<path d="M9.99589 9.82187C10.9757 9.21164 11.73 8.29892 12.1448 7.22178C12.5597 6.14464 12.6124 4.9617 12.2951 3.85192C11.9777 2.74214 11.3076 1.76591 10.386 1.07092C9.46442 0.375931 8.34156 0 7.1873 0C6.03304 0 4.91018 0.375931 3.9886 1.07092C3.06702 1.76591 2.39687 2.74214 2.07952 3.85192C1.76218 4.9617 1.81491 6.14464 2.22975 7.22178C2.64458 8.29892 3.39894 9.21164 4.3787 9.82187C2.76542 10.35 1.31386 11.3367 0.146672 12.7258C0.039964 12.8527 -0.0119589 13.0168 0.00232614 13.182C0.0166111 13.3472 0.0959339 13.4999 0.222844 13.6066C0.349754 13.7133 0.513856 13.7653 0.679049 13.751C0.844243 13.7367 0.996995 13.6574 1.1037 13.5305C2.67167 11.6586 4.83261 10.6281 7.18339 10.6281C9.53417 10.6281 11.6951 11.6586 13.267 13.5305C13.3737 13.6574 13.5264 13.7367 13.6916 13.751C13.8568 13.7653 14.0209 13.7133 14.1478 13.6066C14.2748 13.4999 14.3541 13.3472 14.3684 13.182C14.3826 13.0168 14.3307 12.8527 14.224 12.7258C13.0568 11.3367 11.6053 10.35 9.99589 9.82187ZM3.12089 5.31562C3.12089 4.51214 3.35915 3.7267 3.80555 3.05862C4.25194 2.39055 4.88642 1.86984 5.62874 1.56236C6.37107 1.25488 7.1879 1.17443 7.97595 1.33118C8.76399 1.48794 9.48786 1.87485 10.056 2.443C10.6242 3.01115 11.0111 3.73502 11.1678 4.52307C11.3246 5.31112 11.2441 6.12795 10.9367 6.87028C10.6292 7.6126 10.1085 8.24708 9.4404 8.69347C8.77232 9.13986 7.98688 9.37813 7.18339 9.37813C6.10633 9.37688 5.07374 8.94847 4.31214 8.18688C3.55054 7.42528 3.12213 6.39269 3.12089 5.31562ZM18.5631 7.94531L16.0631 10.4453C16.005 10.5034 15.9361 10.5495 15.8602 10.581C15.7844 10.6124 15.703 10.6286 15.6209 10.6286C15.5388 10.6286 15.4574 10.6124 15.3816 10.581C15.3057 10.5495 15.2368 10.5034 15.1787 10.4453L13.9287 9.19531C13.8114 9.07804 13.7455 8.91898 13.7455 8.75313C13.7455 8.58727 13.8114 8.42821 13.9287 8.31094C14.046 8.19366 14.205 8.12778 14.3709 8.12778C14.5367 8.12778 14.6958 8.19366 14.8131 8.31094L15.6209 9.11953L17.6787 7.06094C17.796 6.94366 17.955 6.87778 18.1209 6.87778C18.2867 6.87778 18.4458 6.94366 18.5631 7.06094C18.6804 7.17821 18.7462 7.33727 18.7462 7.50313C18.7462 7.66898 18.6804 7.82804 18.5631 7.94531Z" fill="#3C5EC4"/>
</svg>
