<?xml version="1.0" encoding="UTF-8"?>
<svg width="21px" height="21px" viewBox="0 0 21 21" version="1.1" xmlns="http://www.w3.org/2000/svg" xmlns:xlink="http://www.w3.org/1999/xlink">
    <title>add</title>
    <g id="View" stroke="none" stroke-width="1" fill="none" fill-rule="evenodd">
        <g id="750" transform="translate(-1182.000000, -538.000000)" fill="#86D1B2" fill-rule="nonzero">
            <g id="add" transform="translate(1182.000000, 538.000000)">
                <path d="M17.2451736,0 L3.74893933,0 C1.6794728,0.00246025105 0.00246025105,1.6794728 0,3.74893933 L0,17.2451736 C0.00246025105,19.3146402 1.6794728,20.9916527 3.74893933,20.994113 L17.2451736,20.994113 C19.3146402,20.9916527 20.9916527,19.3146402 20.994113,17.2451736 L20.994113,3.74893933 C20.9916527,1.6794728 19.3146402,0.00246025105 17.2451736,0 Z M14.2460397,11.2468619 L11.2468619,11.2468619 L11.2468619,14.2460397 C11.2468619,14.6601527 10.9111695,14.9958452 10.4970565,14.9958452 C10.0829435,14.9958452 9.74725105,14.6601527 9.74725105,14.2460397 L9.74725105,11.2468619 L6.74811715,11.2468619 C6.33400418,11.2468619 5.99831172,10.9111695 5.99831172,10.4970565 C5.99831172,10.0829435 6.33400418,9.74725105 6.74811715,9.74725105 L9.74729498,9.74725105 L9.74729498,6.74811715 C9.74729498,6.33400418 10.0829874,5.99831172 10.4971004,5.99831172 C10.9112134,5.99831172 11.2468619,6.33400418 11.2468619,6.74811715 L11.2468619,9.74729498 L14.2460397,9.74729498 C14.6601527,9.74729498 14.9958452,10.0829874 14.9958452,10.4971004 C14.9958452,10.9112134 14.6601088,11.2468619 14.2460397,11.2468619 Z" id="Shape"></path>
            </g>
        </g>
    </g>
</svg>