<?xml version="1.0" encoding="UTF-8"?>
<svg width="366px" height="366px" viewBox="0 0 366 366" version="1.1" xmlns="http://www.w3.org/2000/svg" xmlns:xlink="http://www.w3.org/1999/xlink">
    <title>close-bold</title>
    <g id="Page-1" stroke="none" stroke-width="1" fill="none" fill-rule="evenodd">
        <g id="close-bold" fill="#E60F6F" fill-rule="nonzero">
            <path d="M243.1875,182.859375 L356.320312,69.726562 C368.820312,57.226562 368.820312,36.960938 356.320312,24.480469 L341.238281,9.398438 C328.734375,-3.105469 308.46875,-3.105469 295.988281,9.398438 L182.859375,122.527344 L69.726562,9.375 C57.226562,-3.125 36.960938,-3.125 24.480469,9.375 L9.375,24.457031 C-3.125,36.960938 -3.125,57.226562 9.375,69.707031 L122.527344,182.859375 L9.398438,295.988281 C-3.105469,308.492188 -3.105469,328.757812 9.398438,341.238281 L24.480469,356.320312 C36.980469,368.820312 57.246094,368.820312 69.726562,356.320312 L182.859375,243.1875 L295.988281,356.320312 C308.492188,368.820312 328.757812,368.820312 341.238281,356.320312 L356.320312,341.238281 C368.820312,328.734375 368.820312,308.46875 356.320312,295.988281 L243.1875,182.859375 Z" id="Path"></path>
        </g>
    </g>
</svg>