<?xml version="1.0" encoding="UTF-8"?>
<svg width="512px" height="512px" viewBox="0 0 512 512" version="1.1" xmlns="http://www.w3.org/2000/svg" xmlns:xlink="http://www.w3.org/1999/xlink">
    <title>close</title>
    <g id="Page-1" stroke="none" stroke-width="1" fill="none" fill-rule="evenodd">
        <g id="320" transform="translate(-171.000000, -155.000000)" fill="#017BF2" fill-rule="nonzero">
            <g id="close" transform="translate(171.000000, 155.000000)">
                <path d="M284.286,256.002 L506.143,34.144 C513.954,26.333 513.954,13.669 506.143,5.859 C498.332,-1.951 485.668,-1.952 477.858,5.859 L256,227.717 L34.143,5.859 C26.332,-1.952 13.668,-1.952 5.858,5.859 C-1.952,13.67 -1.953,26.334 5.858,34.144 L227.715,256.001 L5.858,477.859 C-1.953,485.67 -1.953,498.334 5.858,506.144 C9.763,510.049 14.882,512.001 20.001,512.001 C25.12,512.001 30.238,510.049 34.144,506.144 L256,284.287 L477.857,506.144 C481.762,510.049 486.881,512.001 492,512.001 C497.119,512.001 502.237,510.049 506.143,506.144 C513.954,498.333 513.954,485.669 506.143,477.859 L284.286,256.002 Z" id="Path"></path>
            </g>
        </g>
    </g>
</svg>