<?xml version="1.0" encoding="UTF-8"?>
<svg width="21px" height="21px" viewBox="0 0 21 21" version="1.1" xmlns="http://www.w3.org/2000/svg" xmlns:xlink="http://www.w3.org/1999/xlink">
    <title>criss-cross</title>
    <g id="View" stroke="none" stroke-width="1" fill="none" fill-rule="evenodd">
        <g id="750" transform="translate(-1388.000000, -371.000000)" fill-rule="nonzero">
            <g id="Черновик" transform="translate(575.000000, 135.000000)">
                <g id="Позиции" transform="translate(0.000000, 236.000000)">
                    <g id="criss-cross" transform="translate(813.000000, 0.000000)">
                        <path d="M10.5,0 C4.71006777,0 0,4.71006777 0,10.5 C0,16.2899322 4.71006777,21 10.5,21 C16.2899322,21 21,16.2899322 21,10.5 C21,4.71006777 16.2899322,0 10.5,0 Z" id="Path" fill="#E60F6F"></path>
                        <path d="M14.366684,13.1293259 C14.7087479,13.47155 14.7087479,14.0244599 14.366684,14.366684 C14.1960525,14.5373154 13.9720688,14.6230316 13.7479248,14.6230316 C13.523941,14.6230316 13.2999573,14.5373154 13.1293259,14.366684 L10.5,11.7371979 L7.87067412,14.366684 C7.70004272,14.5373154 7.47605898,14.6230316 7.2520752,14.6230316 C7.0279312,14.6230316 6.80394746,14.5373154 6.63331602,14.366684 C6.29125215,14.0244599 6.29125215,13.47155 6.63331602,13.1293259 L9.26280214,10.5 L6.63331602,7.87067412 C6.29125215,7.52845 6.29125215,6.97554014 6.63331602,6.63331602 C6.97554014,6.29125215 7.52845,6.29125215 7.87067412,6.63331602 L10.5,9.26280214 L13.1293259,6.63331602 C13.47155,6.29125215 14.0244599,6.29125215 14.366684,6.63331602 C14.7087479,6.97554014 14.7087479,7.52845 14.366684,7.87067412 L11.7371979,10.5 L14.366684,13.1293259 Z" id="Path" fill="#FAFAFA"></path>
                    </g>
                </g>
            </g>
        </g>
    </g>
</svg>