<?xml version="1.0" encoding="UTF-8"?>
<svg width="640px" height="590px" viewBox="0 0 640 590" version="1.1" xmlns="http://www.w3.org/2000/svg" xmlns:xlink="http://www.w3.org/1999/xlink">
    <title>comment</title>
    <g id="Page-1" stroke="none" stroke-width="1" fill="none" fill-rule="evenodd">
        <g id="comment" fill="#FFFFFF" fill-rule="nonzero">
            <path d="M552.011719,0.667969 L87.988281,0.667969 C39.472656,0.667969 0,40.132812 0,88.65625 L0,372.628906 C0,421.042969 39.300781,460.445312 87.675781,460.617188 L87.675781,589.480469 L272.867188,460.617188 L552.011719,460.617188 C600.527344,460.617188 640,421.144531 640,372.628906 L640,88.65625 C640,40.132812 600.527344,0.667969 552.011719,0.667969 Z M602.5,372.628906 C602.5,400.464844 579.851562,423.117188 552.011719,423.117188 L261.101562,423.117188 L125.175781,517.703125 L125.175781,423.117188 L87.988281,423.117188 C60.148438,423.117188 37.5,400.464844 37.5,372.628906 L37.5,88.65625 C37.5,60.8125 60.148438,38.167969 87.988281,38.167969 L552.011719,38.167969 C579.851562,38.167969 602.5,60.8125 602.5,88.65625 L602.5,372.628906 Z" id="Shape"></path>
            <polygon id="Path" points="171.292969 133.171875 468.707031 133.171875 468.707031 170.671875 171.292969 170.671875"></polygon>
            <polygon id="Path" points="171.292969 213.171875 468.707031 213.171875 468.707031 250.671875 171.292969 250.671875"></polygon>
            <polygon id="Path" points="171.292969 293.171875 468.707031 293.171875 468.707031 330.671875 171.292969 330.671875"></polygon>
        </g>
    </g>
</svg>