<?xml version="1.0" encoding="UTF-8"?>
<svg width="21px" height="21px" viewBox="0 0 21 21" version="1.1" xmlns="http://www.w3.org/2000/svg" xmlns:xlink="http://www.w3.org/1999/xlink">
    <title>settings</title>
    <g id="Page-1" stroke="none" stroke-width="1" fill="none" fill-rule="evenodd">
        <g id="settings" fill="#B8C1CC" fill-rule="nonzero">
            <path d="M19.847625,8.21975 L18.202625,8.010625 C18.067,7.59325 17.899875,7.19075 17.70475,6.808375 L18.720625,5.50025 C19.131875,4.970875 19.08375,4.223625 18.613875,3.768625 L17.23575,2.3905 C16.776375,1.91625 16.029125,1.869 15.498875,2.279375 L14.1925,3.29525 C13.810125,3.100125 13.407625,2.933 12.989375,2.797375 L12.78025,1.155 C12.7015,0.496125 12.142375,-1.16573418e-15 11.48,-1.16573418e-15 L9.52,-1.16573418e-15 C8.857625,-1.16573418e-15 8.2985,0.496125 8.21975,1.152375 L8.010625,2.797375 C7.592375,2.933 7.189875,3.09925 6.8075,3.29525 L5.50025,2.279375 C4.97175,1.869 4.2245,1.91625 3.768625,2.386125 L2.3905,3.763375 C1.91625,4.223625 1.868125,4.970875 2.279375,5.501125 L3.29525,6.808375 C3.09925,7.19075 2.933,7.59325 2.797375,8.010625 L1.155,8.21975 C0.496125,8.2985 3.49720253e-15,8.857625 3.49720253e-15,9.52 L3.49720253e-15,11.48 C3.49720253e-15,12.142375 0.496125,12.7015 1.152375,12.78025 L2.797375,12.989375 C2.933,13.40675 3.100125,13.80925 3.29525,14.191625 L2.279375,15.49975 C1.868125,16.029125 1.91625,16.776375 2.386125,17.231375 L3.76425,18.6095 C4.2245,19.082875 4.970875,19.130125 5.501125,18.71975 L6.808375,17.703875 C7.19075,17.899875 7.59325,18.067 8.010625,18.20175 L8.21975,19.84325 C8.2985,20.503875 8.857625,21 9.52,21 L11.48,21 C12.142375,21 12.7015,20.503875 12.78025,19.847625 L12.989375,18.202625 C13.40675,18.067 13.80925,17.899875 14.191625,17.70475 L15.49975,18.720625 C16.029125,19.131875 16.776375,19.08375 17.231375,18.613875 L18.6095,17.23575 C19.08375,16.7755 19.131875,16.029125 18.720625,15.498875 L17.70475,14.191625 C17.90075,13.80925 18.067875,13.40675 18.202625,12.989375 L19.844125,12.78025 C20.503,12.7015 20.9991262,12.142375 20.9991262,11.48 L20.9991262,9.52 C21,8.857625 20.503875,8.2985 19.847625,8.21975 Z M10.5,14.875 C8.087625,14.875 6.125,12.912375 6.125,10.5 C6.125,8.087625 8.087625,6.125 10.5,6.125 C12.912375,6.125 14.875,8.087625 14.875,10.5 C14.875,12.912375 12.912375,14.875 10.5,14.875 Z" id="Shape"></path>
        </g>
    </g>
</svg>